<svg xmlns="http://www.w3.org/2000/svg" viewBox="0 0 1500 1585" font-family="Helvetica, Arial, sans-serif" xmlns:c2pa="http://c2pa.org/manifest"><metadata><c2pa:manifest>AAAWgmp1bWIAAAAeanVtZGMycGEAEQAQgAAAqgA4m3EDYzJwYQAAABZcanVtYgAAAEdqdW1kYzJtYQARABCAAACqADibcQN1cm46YzJwYTo2ZjIyNWU3ZS02ZWNmLTQ5MjktYTJmNS0yM2Q3MDRlMjU4YmQAAAADl2p1bWIAAAApanVtZGMyYXMAEQAQgAAAqgA4m3EDYzJwYS5hc3NlcnRpb25zAAAAALxqdW1iAAAARGp1bWRjYm9yABEAEIAAAKoAOJtxE2MycGEuaW5ncmVkaWVudC52MwAAAAAYYzJzaAe0ll8lVu0iiP5YC9sTcdsAAABwY2JvcqNpZGM6Zm9ybWF0bWltYWdlL3N2Zyt4bWxqaW5zdGFuY2VJRHgseG1wOmlpZDowMDZiY2U0My1mMzQ2LTRlMTEtYmI2MS04NTVmMTQ2YjliZTBscmVsYXRpb25zaGlwaHBhcmVudE9mAAAB4mp1bWIAAABBanVtZGNib3IAEQAQgAAAqgA4m3ETYzJwYS5hY3Rpb25zLnYyAAAAABhjMnNozjQPFKTMl7XGuk1aEeBPYgAAAZljYm9yomdhY3Rpb25zgqJmYWN0aW9ua2MycGEub3BlbmVkanBhcmFtZXRlcnOha2luZ3JlZGllbnRzgaJjdXJseC1zZWxmI2p1bWJmPWMycGEuYXNzZXJ0aW9ucy9jMnBhLmluZ3JlZGllbnQudjNkaGFzaFggRZx55k6BA8haXcKAeUMtRKs4RpwXgQaqd64eruqNJjukZmFjdGlvbngdY29tLmFudGhyb3BpYy5jbGF1ZGUucHJvdmlkZWRqcGFyYW1ldGVyc6F4H2NvbS5hbnRocm9waWMub3JpZ2luLWNvbmZpZGVuY2VndW5rbm93bmtkZXNjcmlwdGlvbnhmQ2xhdWRlIHByb3ZpZGVkIHRoaXMgZmlsZSBhdCB0aGUgcmVxdWVzdCBvZiBhIHVzZXIgYW5kIG1heSBoYXZlIGNyZWF0ZWQgb3IgbW9kaWZpZWQgdGhlIGZpbGUgY29udGVudHMubXNvZnR3YXJlQWdlbnShZG5hbWVmQ2xhdWRlcmFsbEFjdGlvbnNJbmNsdWRlZPUAAADIanVtYgAAAEBqdW1kY2JvcgARABCAAACqADibcRNjMnBhLmhhc2guZGF0YQAAAAAYYzJzaA4lOtTu23TCqvEwuDp/r3gAAACAY2JvcqVjYWxnZnNoYTI1NmNwYWRNAAAAAAAAAAAAAAAAAGRoYXNoWCC8XdknaFD5G/UzI7kxtPClI4pAAO7+zutoe8cAiLTU12RuYW1lbmp1bWJmIG1hbmlmZXN0amV4Y2x1c2lvbnOBomVzdGFydBiqZmxlbmd0aBkeBAAAAj5qdW1iAAAAJ2p1bWRjMmNsABEAEIAAAKoAOJtxA2MycGEuY2xhaW0udjIAAAACD2Nib3KlY2FsZ2ZzaGEyNTZpc2lnbmF0dXJleE1zZWxmI2p1bWJmPS9jMnBhL3VybjpjMnBhOjZmMjI1ZTdlLTZlY2YtNDkyOS1hMmY1LTIzZDcwNGUyNThiZC9jMnBhLnNpZ25hdHVyZWppbnN0YW5jZUlEeCx4bXA6aWlkOmNhNmRlNmI3LTUzYzctNGIwZC05N2U1LTMwMTQ5ZTY4MzJmMHJjcmVhdGVkX2Fzc2VydGlvbnODomN1cmx4LXNlbGYjanVtYmY9YzJwYS5hc3NlcnRpb25zL2MycGEuaW5ncmVkaWVudC52M2RoYXNoWCBFnHnmToEDyFpdwoB5Qy1EqzhGnBeBBqp3rh6u6o0mO6JjdXJseCpzZWxmI2p1bWJmPWMycGEuYXNzZXJ0aW9ucy9jMnBhLmFjdGlvbnMudjJkaGFzaFggZg0jYNuYPLPSAO0wYHrE7WO/N6GqvmPTJOt+fJoTCISiY3VybHgpc2VsZiNqdW1iZj1jMnBhLmFzc2VydGlvbnMvYzJwYS5oYXNoLmRhdGFkaGFzaFgg1eC/Kl8os+Oj/MKuiylCv6GAgQFuaWG5Py6gmmPTSe90Y2xhaW1fZ2VuZXJhdG9yX2luZm+jZG5hbWVvQW50aHJvcGljIEZpbGVzZ3ZlcnNpb25lMS4wLjBrc3BlY1ZlcnNpb25lMi40LjAAABA4anVtYgAAAChqdW1kYzJjcwARABCAAACqADibcQNjMnBhLnNpZ25hdHVyZQAAABAIY2JvctKEWQISogEmGCFZAgowggIGMIIBjaADAgECAhRA5aAK7sI50L64g/oGQgU9Z1UTADAKBggqhkjOPQQDAzBJMRcwFQYDVQQKEw5BbnRocm9waWMsIFBCQzEuMCwGA1UEAxMlQW50aHJvcGljIENvbnRlbnQgQ3JlZGVudGlhbHMgUm9vdCBDQTAeFw0yNjA4MDcxODQzNTZaFw0yODA4MDYxOTQzNTZaMEQxFzAVBgNVBAoTDkFudGhyb3BpYywgUEJDMSkwJwYDVQQDEyBBbnRocm9waWMgQ2xhdWRlIENvbnRlbnQgU2lnbmluZzBZMBMGByqGSM49AgEGCCqGSM49AwEHA0IABJh6CmvLUBgFFNU0vUKlOVtE6djd17L5SuwX0LemFisBM3dkd/3cyjxFA3Qo5S46fX0/ihY0VZ7mfb9KF703t5OjWDBWMA4GA1UdDwEB/wQEAwIHgDAVBgNVHSUEDjAMBgorBgEEAYPoXgIBMAwGA1UdEwEB/wQCMAAwHwYDVR0jBBgwFoAUzlHiBIFOZFsj+OPEz5o+nMHXXMIwCgYIKoZIzj0EAwMDZwAwZAIwMXMdFJ4BetLLVY7ORuE9noqbbAZOZn/aArXyTwFAZfKrPzxF2vPoJNf1+UCdg1XGAjBwX1zd9WGqYkqmL5SFqw1QySjr1zJfpJM9+1rdDwSPLMOPOjKuiXjoU/pUUeG9RwmhY3BhZFkNngAAAAAAAAAAAAAAAAAAAAAAAAAAAAAAAAAAAAAAAAAAAAAAAAAAAAAAAAAAAAAAAAAAAAAAAAAAAAAAAAAAAAAAAAAAAAAAAAAAAAAAAAAAAAAAAAAAAAAAAAAAAAAAAAAAAAAAAAAAAAAAAAAAAAAAAAAAAAAAAAAAAAAAAAAAAAAAAAAAAAAAAAAAAAAAAAAAAAAAAAAAAAAAAAAAAAAAAAAAAAAAAAAAAAAAAAAAAAAAAAAAAAAAAAAAAAAAAAAAAAAAAAAAAAAAAAAAAAAAAAAAAAAAAAAAAAAAAAAAAAAAAAAAAAAAAAAAAAAAAAAAAAAAAAAAAAAAAAAAAAAAAAAAAAAAAAAAAAAAAAAAAAAAAAAAAAAAAAAAAAAAAAAAAAAAAAAAAAAAAAAAAAAAAAAAAAAAAAAAAAAAAAAAAAAAAAAAAAAAAAAAAAAAAAAAAAAAAAAAAAAAAAAAAAAAAAAAAAAAAAAAAAAAAAAAAAAAAAAAAAAAAAAAAAAAAAAAAAAAAAAAAAAAAAAAAAAAAAAAAAAAAAAAAAAAAAAAAAAAAAAAAAAAAAAAAAAAAAAAAAAAAAAAAAAAAAAAAAAAAAAAAAAAAAAAAAAAAAAAAAAAAAAAAAAAAAAAAAAAAAAAAAAAAAAAAAAAAAAAAAAAAAAAAAAAAAAAAAAAAAAAAAAAAAAAAAAAAAAAAAAAAAAAAAAAAAAAAAAAAAAAAAAAAAAAAAAAAAAAAAAAAAAAAAAAAAAAAAAAAAAAAAAAAAAAAAAAAAAAAAAAAAAAAAAAAAAAAAAAAAAAAAAAAAAAAAAAAAAAAAAAAAAAAAAAAAAAAAAAAAAAAAAAAAAAAAAAAAAAAAAAAAAAAAAAAAAAAAAAAAAAAAAAAAAAAAAAAAAAAAAAAAAAAAAAAAAAAAAAAAAAAAAAAAAAAAAAAAAAAAAAAAAAAAAAAAAAAAAAAAAAAAAAAAAAAAAAAAAAAAAAAAAAAAAAAAAAAAAAAAAAAAAAAAAAAAAAAAAAAAAAAAAAAAAAAAAAAAAAAAAAAAAAAAAAAAAAAAAAAAAAAAAAAAAAAAAAAAAAAAAAAAAAAAAAAAAAAAAAAAAAAAAAAAAAAAAAAAAAAAAAAAAAAAAAAAAAAAAAAAAAAAAAAAAAAAAAAAAAAAAAAAAAAAAAAAAAAAAAAAAAAAAAAAAAAAAAAAAAAAAAAAAAAAAAAAAAAAAAAAAAAAAAAAAAAAAAAAAAAAAAAAAAAAAAAAAAAAAAAAAAAAAAAAAAAAAAAAAAAAAAAAAAAAAAAAAAAAAAAAAAAAAAAAAAAAAAAAAAAAAAAAAAAAAAAAAAAAAAAAAAAAAAAAAAAAAAAAAAAAAAAAAAAAAAAAAAAAAAAAAAAAAAAAAAAAAAAAAAAAAAAAAAAAAAAAAAAAAAAAAAAAAAAAAAAAAAAAAAAAAAAAAAAAAAAAAAAAAAAAAAAAAAAAAAAAAAAAAAAAAAAAAAAAAAAAAAAAAAAAAAAAAAAAAAAAAAAAAAAAAAAAAAAAAAAAAAAAAAAAAAAAAAAAAAAAAAAAAAAAAAAAAAAAAAAAAAAAAAAAAAAAAAAAAAAAAAAAAAAAAAAAAAAAAAAAAAAAAAAAAAAAAAAAAAAAAAAAAAAAAAAAAAAAAAAAAAAAAAAAAAAAAAAAAAAAAAAAAAAAAAAAAAAAAAAAAAAAAAAAAAAAAAAAAAAAAAAAAAAAAAAAAAAAAAAAAAAAAAAAAAAAAAAAAAAAAAAAAAAAAAAAAAAAAAAAAAAAAAAAAAAAAAAAAAAAAAAAAAAAAAAAAAAAAAAAAAAAAAAAAAAAAAAAAAAAAAAAAAAAAAAAAAAAAAAAAAAAAAAAAAAAAAAAAAAAAAAAAAAAAAAAAAAAAAAAAAAAAAAAAAAAAAAAAAAAAAAAAAAAAAAAAAAAAAAAAAAAAAAAAAAAAAAAAAAAAAAAAAAAAAAAAAAAAAAAAAAAAAAAAAAAAAAAAAAAAAAAAAAAAAAAAAAAAAAAAAAAAAAAAAAAAAAAAAAAAAAAAAAAAAAAAAAAAAAAAAAAAAAAAAAAAAAAAAAAAAAAAAAAAAAAAAAAAAAAAAAAAAAAAAAAAAAAAAAAAAAAAAAAAAAAAAAAAAAAAAAAAAAAAAAAAAAAAAAAAAAAAAAAAAAAAAAAAAAAAAAAAAAAAAAAAAAAAAAAAAAAAAAAAAAAAAAAAAAAAAAAAAAAAAAAAAAAAAAAAAAAAAAAAAAAAAAAAAAAAAAAAAAAAAAAAAAAAAAAAAAAAAAAAAAAAAAAAAAAAAAAAAAAAAAAAAAAAAAAAAAAAAAAAAAAAAAAAAAAAAAAAAAAAAAAAAAAAAAAAAAAAAAAAAAAAAAAAAAAAAAAAAAAAAAAAAAAAAAAAAAAAAAAAAAAAAAAAAAAAAAAAAAAAAAAAAAAAAAAAAAAAAAAAAAAAAAAAAAAAAAAAAAAAAAAAAAAAAAAAAAAAAAAAAAAAAAAAAAAAAAAAAAAAAAAAAAAAAAAAAAAAAAAAAAAAAAAAAAAAAAAAAAAAAAAAAAAAAAAAAAAAAAAAAAAAAAAAAAAAAAAAAAAAAAAAAAAAAAAAAAAAAAAAAAAAAAAAAAAAAAAAAAAAAAAAAAAAAAAAAAAAAAAAAAAAAAAAAAAAAAAAAAAAAAAAAAAAAAAAAAAAAAAAAAAAAAAAAAAAAAAAAAAAAAAAAAAAAAAAAAAAAAAAAAAAAAAAAAAAAAAAAAAAAAAAAAAAAAAAAAAAAAAAAAAAAAAAAAAAAAAAAAAAAAAAAAAAAAAAAAAAAAAAAAAAAAAAAAAAAAAAAAAAAAAAAAAAAAAAAAAAAAAAAAAAAAAAAAAAAAAAAAAAAAAAAAAAAAAAAAAAAAAAAAAAAAAAAAAAAAAAAAAAAAAAAAAAAAAAAAAAAAAAAAAAAAAAAAAAAAAAAAAAAAAAAAAAAAAAAAAAAAAAAAAAAAAAAAAAAAAAAAAAAAAAAAAAAAAAAAAAAAAAAAAAAAAAAAAAAAAAAAAAAAAAAAAAAAAAAAAAAAAAAAAAAAAAAAAAAAAAAAAAAAAAAAAAAAAAAAAAAAAAAAAAAAAAAAAAAAAAAAAAAAAAAAAAAAAAAAAAAAAAAAAAAAAAAAAAAAAAAAAAAAAAAAAAAAAAAAAAAAAAAAAAAAAAAAAAAAAAAAAAAAAAAAAAAAAAAAAAAAAAAAAAAAAAAAAAAAAAAAAAAAAAAAAAAAAAAAAAAAAAAAAAAAAAAAAAAAAAAAAAAAAAAAAAAAAAAAAAAAAAAAAAAAAAAAAAAAAAAAAAAAAAAAAAAAAAAAAAAAAAAAAAAAAAAAAAAAAAAAAAAAAAAAAAAAAAAAAAAAAAAAAAAAAAAAAAAAAAAAAAAAAAAAAAAAAAAAAAAAAAAAAAAAAAAAAAAAAAAAAAAAAAAAAAAAAAAAAAAAAAAAAAAAAAAAAAAAAAAAAAAAAAAAAAAAAAAAAAAAAAAAAAAAAAAAAAAAAAAAAAAAAAAAAAAAAAAAAAAAAAAAAAAAAAAAAAAAAAAAAAAAAAAAAAAAAAAAAAAAAAAAAAAAAAAAAAAAAAAAAAAAAAAAAAAAAAAAAAAAAAAAAAAAAAAAAAAAAAAAAAAAAAAAAAAAAAAAAAAAAAAAAAAAAAAAAAAAAAAAAAAAAAAAAAAAAAAAAAAAAAAAAAAAAAAAAAAAAAAAAAAAAAAAAAAAAAAAAAAAAAAAAAAAAAAAAAAAAAAAAAAAAAAAAAAAAAAAAAAAAAAAAAAAAAAAAAAAAAAAAAAAAAAAAAAAAAAAAAAAAAAAAAAAAAAAAAAAAAAAAAAAAAAAAAAAAAAAAAAAAAAAAAAAAAAAAAAAAAAAAAAAAAAAAAAAAAAAAAAAAAAAAAAAAAAAAAAAAAAAAAAAAAAAAAAAAAAAAAAAAAAAAAAAAAAAAAAAAAAAAAAAAAAAAAAAAAAAAAAAAAAAAAAAAAAAAAAAAAAAAAAAAAAAAAAAAAAAAAAAAAAAAAAAAAAAAAAAAAAAAAAAAAAAAAAAAAAAAAAAAAAAAAAAAAAAAAAAAAAAAAAAAAAAAAAAAAAAAAAAAAAAAAAAAAAAAAAAAAAAAAAAAAAAAAAAAAAAAAAAAAAAAAAAAAAAAAAAAAAAAAAAAAAAAAAAAAAAAAAAAAAAAAAAAAAAAAAAAAAAAAAAAAAAAAAAAAAAAAAAAAAAAAAAAAAAAAAAAAAAAAAAAAAAAAAAAAAAAAAAAAAAAAAAAAAAAAAAAAAAAAAAAAAAAAAAAAAAAAAAAAAAAAAAAAAAAAAAAAAAAAAAAAAAAAAAAAAAAAAAAAAAAAAAAAAAAAAAAAAAAAAAAAAAAAAAAAAAAAAAAAAAAAAAAAAAAAAAAAAAAAAAAAAAAAAAAAAAAAAAAAAAAAAAAAAAAAAAAAAAAAAAAAAAAAAAAAAAAAAAAAAAAAAAAAAAAAAAAAAAAAAAAAAAAAAAAAAAAAAAAAAAAAAAAAAAAAAAAAAAAAAAAAAAAAAAAAAAAAAAAAAAAAAAAAAAAAAAAAAAAAAAAAAAAAAAAAAAAAAAAAAAAAAAAAAAAAAAAAAAAAAAAAAAAAAAAAAAAAAAAAAAAAAAAAAAAAAAAAAAAAAAAAAAAAAAAAAAAAAAAAAAAAAAPZYQEE8CvoOxm37v4NeMx7UwF7OpaNg+QPBvNEcRE59Rc28SSk8xzVMyBNowi1XzJWZIGOZ7nGJ2+HKlp2Ac4f5rkE=</c2pa:manifest></metadata>
<defs><marker id="k" viewBox="0 0 10 10" refX="8" refY="5" markerWidth="8" markerHeight="8" orient="auto-start-reverse"><path d="M0 0L10 5L0 10z" fill="#111"/></marker></defs>
<rect width="1500" height="1585" fill="#f4f7fb"/>
<rect x="15" y="10" width="1470" height="585" rx="22" fill="#fff" stroke="#111" stroke-width="2.5"/>
<text x="38" y="42" font-size="15" font-weight="700" fill="#111">Figure 1 – Technical Topology</text>
<!-- analyst -->
<g fill="none" stroke="#111" stroke-width="2.2" stroke-linecap="round"><circle cx="722" cy="38" r="7"/><circle cx="750" cy="35" r="8"/><circle cx="778" cy="38" r="7"/>
<path d="M710 62c0-10 6-14 12-14s12 4 12 14M736 62c0-11 6-16 14-16s14 5 14 16M766 62c0-10 6-14 12-14s12 4 12 14"/></g>
<text x="805" y="56" font-size="14" fill="#111">Analyst (on the Mac)</text>
<!-- UTM boundary -->
<rect x="40" y="100" width="1420" height="460" rx="14" fill="none" stroke="#111" stroke-width="2.2" stroke-dasharray="3 6" stroke-linecap="round"/>
<text x="60" y="130" font-size="18" fill="#111">UTM Virtual Network</text><text x="60" y="151" font-size="14" fill="#111">192.168.64.0/24</text>
<!-- mac host box -->
<rect x="590" y="185" width="320" height="345" rx="12" fill="none" stroke="#111" stroke-width="2" stroke-dasharray="3 6" stroke-linecap="round"/>
<text x="603" y="208" font-size="13" fill="#111">Mac host 192.168.64.1</text>
<!-- analyst arrow -->
<line x1="750" y1="68" x2="750" y2="226" stroke="#111" stroke-width="2" marker-start="url(#k)" marker-end="url(#k)"/>
<text x="764" y="150" font-size="13" fill="#111">Splunk Web</text><text x="764" y="167" font-size="13" fill="#111">192.168.64.1:8000</text>
<g transform="translate(705,225)" fill="none" stroke="#111" stroke-width="2.5" stroke-linecap="round" stroke-linejoin="round"><rect width="90" height="100" rx="10" fill="#fff"/><rect x="0" y="86" width="90" height="14" rx="6" fill="#fff"/><circle cx="10" cy="93" r="2.2" fill="#111"/><rect x="14" y="16" width="62" height="42" rx="3"/><circle cx="42" cy="36" r="11"/><path d="M50 44l14 10" stroke-width="4"/><path d="M20 24h18M20 30h10" stroke-width="2"/><path d="M16 68h58M16 77h40" stroke-width="2"/></g>
<text x="750" y="345" text-anchor="middle" font-size="15" font-weight="700" fill="#111">Splunk Manager</text><text x="750" y="364" text-anchor="middle" font-size="13" font-weight="400" fill="#111">macOS · Indexer, search head, receiver</text><text x="750" y="383" text-anchor="middle" font-size="13" font-weight="400" fill="#111">Splunk Enterprise · index soc_capstone</text>
<!-- loopback -->
<g fill="none" stroke="#111" stroke-width="2"><rect x="615" y="410" width="110" height="46" rx="8" stroke-dasharray="5 4"/><rect x="775" y="410" width="110" height="46" rx="8" stroke-dasharray="5 4"/></g>
<text x="670" y="437" text-anchor="middle" font-size="13" font-weight="700" fill="#111">SignalScope</text><text x="830" y="437" text-anchor="middle" font-size="13" font-weight="700" fill="#111">Mgmt API</text>
<text x="670" y="474" text-anchor="middle" font-size="12" fill="#111">127.0.0.1:8765</text><text x="830" y="474" text-anchor="middle" font-size="12" fill="#111">127.0.0.1:8089</text>
<line x1="725" y1="433" x2="773" y2="433" stroke="#111" stroke-width="2" stroke-dasharray="5 4" marker-end="url(#k)"/>
<text x="750" y="502" text-anchor="middle" font-size="12" font-style="italic" fill="#111">loopback only</text>
<!-- endpoints -->
<g transform="translate(215,225)" fill="none" stroke="#111" stroke-width="2.5" stroke-linecap="round" stroke-linejoin="round"><rect width="90" height="100" rx="10" fill="#fff"/><rect x="0" y="86" width="90" height="14" rx="6" fill="#fff"/><circle cx="10" cy="93" r="2.2" fill="#111"/><rect x="14" y="16" width="62" height="42" rx="3"/><g fill="#111" stroke="none"><rect x="33" y="26" width="11" height="9"/><rect x="46" y="26" width="11" height="9"/><rect x="33" y="37" width="11" height="9"/><rect x="46" y="37" width="11" height="9"/></g><path d="M16 68h58M16 77h40" stroke-width="2"/></g>
<text x="260" y="345" text-anchor="middle" font-size="15" font-weight="700" fill="#111">Windows Endpoint</text><text x="260" y="364" text-anchor="middle" font-size="13" font-weight="400" fill="#111">Windows 11 · 192.168.64.2</text><text x="260" y="383" text-anchor="middle" font-size="13" font-weight="400" fill="#111">Sysmon, OpenSSH, Splunk Universal Forwarder</text>
<g transform="translate(1195,225)" fill="none" stroke="#111" stroke-width="2.5" stroke-linecap="round" stroke-linejoin="round"><rect width="90" height="100" rx="10" fill="#fff"/><rect x="0" y="86" width="90" height="14" rx="6" fill="#fff"/><circle cx="10" cy="93" r="2.2" fill="#111"/><rect x="14" y="16" width="62" height="42" rx="3"/><path d="M24 26l10 8-10 8M40 44h18" stroke-width="3"/><path d="M16 68h58M16 77h40" stroke-width="2"/></g>
<text x="1240" y="345" text-anchor="middle" font-size="15" font-weight="700" fill="#111">Linux Endpoint</text><text x="1240" y="364" text-anchor="middle" font-size="13" font-weight="400" fill="#111">Kali Linux · 192.168.64.4</text><text x="1240" y="383" text-anchor="middle" font-size="13" font-weight="400" fill="#111">OpenSSH, Splunk Universal Forwarder</text>
<!-- telemetry -->
<line x1="307" y1="275" x2="708" y2="275" stroke="#111" stroke-width="2" marker-end="url(#k)"/>
<text x="340" y="262" font-size="14" font-weight="700" fill="#111">TCP 9997</text>
<text x="340" y="298" font-size="12.5" fill="#111">Security · System · Application</text><text x="340" y="315" font-size="12.5" fill="#111">Sysmon Operational</text>
<line x1="1193" y1="275" x2="792" y2="275" stroke="#111" stroke-width="2" marker-end="url(#k)"/>
<text x="975" y="262" font-size="14" font-weight="700" fill="#111">TCP 9997</text>
<text x="975" y="298" font-size="12.5" fill="#111">/var/log/auth.log</text><text x="975" y="315" font-size="12.5" fill="#111">/var/log/syslog</text>
<line x1="703" y1="242" x2="309" y2="242" stroke="#111" stroke-width="2" stroke-dasharray="7 5" marker-end="url(#k)"/>
<text x="340" y="233" font-size="13" font-weight="700" fill="#111">SSH 22</text><text x="395" y="233" font-size="12" fill="#111">observed in Splunk</text>
<line x1="797" y1="242" x2="1191" y2="242" stroke="#111" stroke-width="2" stroke-dasharray="7 5" marker-end="url(#k)"/>
<text x="975" y="218" font-size="12.5" font-weight="700" fill="#b3261e">Attk101 attack source</text>
<text x="975" y="233" font-size="13" font-weight="700" fill="#111">SSH 22</text><text x="1030" y="233" font-size="12" fill="#111">observed in Splunk</text>
<path d="M1240 223V122H260V223" fill="none" stroke="#111" stroke-width="1.5" stroke-dasharray="2 5" stroke-linecap="round" stroke-linejoin="round" marker-end="url(#k)"/>
<text x="1000" y="141" font-size="13" font-weight="700" fill="#111">RDP 3389 / SSH 22</text><text x="1000" y="157" font-size="12" fill="#111">Kali → Windows, observed in Sysmon</text>
<text x="60" y="492" font-size="12.5" fill="#111">Dotted arrow: Kali → Windows (RDP 3389, SSH 22), observed in Sysmon on Windows.</text>
<text x="60" y="510" font-size="12.5" fill="#111">Dashed arrows: SSH 22 (Mac → VMs), observed in Splunk telemetry. Attk101 attack source: Mac → Kali.</text>
<text x="60" y="528" font-size="12.5" fill="#111">Telemetry stays inside the lab network and is forwarded only to the Splunk Manager.</text>
<text x="60" y="546" font-size="12.5" fill="#111">The live console and management API are bound to loopback for local analyst use.</text>

<text x="38" y="622" font-size="15" font-weight="700" fill="#111">Figure 2 – Explainer View</text>
<g transform="translate(0,625)">
<defs>
<linearGradient id="hd" x1="0" y1="0" x2="1" y2="0"><stop offset="0" stop-color="#0c1a33"/><stop offset="1" stop-color="#16294d"/></linearGradient>
<linearGradient id="win" x1="0" y1="0" x2="1" y2="1"><stop offset="0" stop-color="#0a3d91"/><stop offset="1" stop-color="#3aa0ff"/></linearGradient>
<linearGradient id="kali" x1="0" y1="0" x2="1" y2="1"><stop offset="0" stop-color="#0b0f1a"/><stop offset="1" stop-color="#1b2a4a"/></linearGradient>
<linearGradient id="gn" x1="0" y1="0" x2="0" y2="1"><stop offset="0" stop-color="#eefaf4"/><stop offset="1" stop-color="#fff"/></linearGradient>
<linearGradient id="bl" x1="0" y1="0" x2="0" y2="1"><stop offset="0" stop-color="#eaf2ff"/><stop offset="1" stop-color="#fff"/></linearGradient>
<linearGradient id="sp" x1="0" y1="0" x2="0" y2="1"><stop offset="0" stop-color="#f1f7f3"/><stop offset="1" stop-color="#fff"/></linearGradient>
<filter id="sh" x="-5%" y="-5%" width="110%" height="115%"><feDropShadow dx="0" dy="3" stdDeviation="4" flood-opacity=".15"/></filter>
<marker id="g" viewBox="0 0 10 10" refX="8" refY="5" markerWidth="9" markerHeight="9" orient="auto"><path d="M0 0L10 5L0 10z" fill="#0f8f6a"/></marker>
<marker id="p" viewBox="0 0 10 10" refX="8" refY="5" markerWidth="8" markerHeight="8" orient="auto"><path d="M0 0L10 5L0 10z" fill="#7a3fc4"/></marker>
<style>
.h{font-size:22px;font-weight:700;fill:#fff}.t{font-size:15px;fill:#14213d}.s{font-size:13px;fill:#46546b}.b{font-size:14px;font-weight:700;fill:#14213d}
.c{font-size:12px;fill:#14213d;text-anchor:middle}.chip{fill:#fff;stroke:#9db4d6;stroke-width:1.2}
</style>
</defs>
<rect width="1500" height="960" fill="#f4f7fb"/>

<!-- header -->
<rect x="15" y="12" width="1470" height="98" rx="12" fill="url(#hd)"/>
<text x="40" y="58" font-size="34" font-weight="700" fill="#fff">SOC PLAYGROUND – SECURITY OPERATIONS ARCHITECTURE</text>
<text x="40" y="90" font-size="16" fill="#cfe0ff">UTM Virtual Network  |  192.168.64.0/24  |  Splunk Telemetry, Detection and Attack Simulation</text>
<rect x="1130" y="24" width="340" height="74" rx="8" fill="#fff"/>
<text x="1146" y="44" font-size="13" font-weight="700" fill="#14213d">Network Overview</text>
<text x="1146" y="62" class="s">Subnet: 192.168.64.0/24</text>
<text x="1146" y="78" class="s">Splunk Manager .1  ·  Windows .2  ·  Kali .4</text>
<text x="1146" y="93" class="s" font-size="11">Source: 06-deliverables/architecture.md</text>

<!-- ============ WINDOWS ============ -->
<g filter="url(#sh)"><rect x="30" y="135" width="470" height="450" rx="12" fill="url(#gn)" stroke="#0f8f6a" stroke-width="2.5"/></g>
<path d="M30 147a12 12 0 0 1 12-12h446a12 12 0 0 1 12 12v26H30z" fill="#0f8f6a"/>
<text x="50" y="161" class="h" font-size="20">Windows Endpoint</text>
<g transform="translate(135,190)">
<rect width="230" height="140" rx="8" fill="#0f1115"/><rect x="8" y="8" width="214" height="124" rx="3" fill="url(#win)"/>
<ellipse cx="115" cy="70" rx="46" ry="24" fill="#6cc2ff" opacity=".7" transform="rotate(-25 115 70)"/>
<ellipse cx="115" cy="70" rx="30" ry="46" fill="#1d6ee0" opacity=".85" transform="rotate(35 115 70)"/>
<ellipse cx="115" cy="70" rx="18" ry="34" fill="#9fdcff" opacity=".8" transform="rotate(-50 115 70)"/>
<rect x="8" y="118" width="214" height="14" fill="#0b0f1a" opacity=".55"/>
<rect x="88" y="121" width="8" height="8" fill="#6cc2ff"/><rect x="99" y="121" width="8" height="8" fill="#6cc2ff"/><rect x="110" y="121" width="8" height="8" fill="#6cc2ff"/>
<path d="M-18 148H248L234 162H-4z" fill="#b9bec8"/><rect x="85" y="148" width="60" height="5" rx="2" fill="#8d94a1"/></g>
<text x="55" y="385" class="t"><tspan font-weight="700">IP:</tspan> 192.168.64.2</text>
<text x="55" y="408" class="t"><tspan font-weight="700">OS:</tspan> Windows 11</text>
<text x="55" y="431" class="t"><tspan font-weight="700">Role:</tspan> Monitored endpoint</text>
<text x="55" y="466" class="b">Key Services</text>
<text x="55" y="486" class="s">• Sysmon    • OpenSSH    • Splunk Universal Forwarder</text>
<text x="55" y="520" class="b">Forwarded Logs → Splunk (TCP 9997)</text>
<rect class="chip" x="55" y="532" width="72" height="26" rx="13"/><text class="c" x="91" y="549">Security</text>
<rect class="chip" x="135" y="532" width="66" height="26" rx="13"/><text class="c" x="168" y="549">System</text>
<rect class="chip" x="209" y="532" width="88" height="26" rx="13"/><text class="c" x="253" y="549">Application</text>
<rect class="chip" x="305" y="532" width="135" height="26" rx="13"/><text class="c" x="372" y="549">Sysmon Operational</text>

<!-- ============ KALI ============ -->
<g filter="url(#sh)"><rect x="1000" y="135" width="470" height="450" rx="12" fill="url(#bl)" stroke="#1f4e9c" stroke-width="2.5"/></g>
<path d="M1000 147a12 12 0 0 1 12-12h446a12 12 0 0 1 12 12v26H1000z" fill="#1f4e9c"/>
<text x="1020" y="161" class="h" font-size="20">Linux Endpoint (Kali)</text>
<g transform="translate(1105,190)">
<rect width="230" height="140" rx="8" fill="#0f1115"/><rect x="8" y="8" width="214" height="124" rx="3" fill="url(#kali)"/>
<path d="M120 100C150 70 190 60 205 30C170 45 140 40 115 70C95 90 70 90 40 80C70 110 100 115 120 100Z" fill="#2d8cff" opacity=".85"/>
<g fill="#7fe3a0"><rect x="16" y="16" width="70" height="3"/><rect x="16" y="24" width="48" height="3"/><rect x="16" y="32" width="82" height="3"/><rect x="16" y="40" width="40" height="3"/><rect x="16" y="48" width="62" height="3"/></g>
<path d="M-18 148H248L234 162H-4z" fill="#b9bec8"/><rect x="85" y="148" width="60" height="5" rx="2" fill="#8d94a1"/></g>
<text x="1025" y="385" class="t"><tspan font-weight="700">IP:</tspan> 192.168.64.4</text>
<text x="1025" y="408" class="t"><tspan font-weight="700">OS:</tspan> Kali Linux</text>
<text x="1025" y="431" class="t"><tspan font-weight="700">Role:</tspan> Monitored endpoint, SSH test target (Attk101)</text>
<text x="1025" y="466" class="b">Key Services</text>
<text x="1025" y="486" class="s">• OpenSSH    • Splunk Universal Forwarder</text>
<text x="1025" y="520" class="b">Forwarded Logs → Splunk (TCP 9997)</text>
<rect class="chip" x="1025" y="532" width="138" height="26" rx="13"/><text class="c" x="1094" y="549">/var/log/auth.log</text>
<rect class="chip" x="1171" y="532" width="122" height="26" rx="13"/><text class="c" x="1232" y="549">/var/log/syslog</text>

<!-- ============ SWITCH ============ -->
<g filter="url(#sh)"><rect x="640" y="135" width="220" height="62" rx="8" fill="#26334d"/></g>
<g fill="#3ddc97"><rect x="656" y="146" width="12" height="8" rx="1"/><rect x="674" y="146" width="12" height="8" rx="1"/><rect x="692" y="146" width="12" height="8" rx="1"/><rect x="710" y="146" width="12" height="8" rx="1"/><rect x="728" y="146" width="12" height="8" rx="1"/><rect x="746" y="146" width="12" height="8" rx="1"/><rect x="764" y="146" width="12" height="8" rx="1"/><rect x="782" y="146" width="12" height="8" rx="1"/><rect x="800" y="146" width="12" height="8" rx="1"/><rect x="818" y="146" width="12" height="8" rx="1"/></g>
<text x="750" y="176" text-anchor="middle" font-size="13" font-weight="700" fill="#fff">UTM Virtual Network</text>
<text x="750" y="190" text-anchor="middle" font-size="11" fill="#b9c8e6">192.168.64.0/24</text>

<!-- telemetry lines -->
<path d="M500 300H530V166H640" fill="none" stroke="#0f8f6a" stroke-width="3.5" marker-end="url(#g)"/>
<path d="M1000 300H970V166H860" fill="none" stroke="#0f8f6a" stroke-width="3.5" marker-end="url(#g)"/>
<line x1="750" y1="197" x2="750" y2="248" stroke="#0f8f6a" stroke-width="3.5" marker-end="url(#g)"/>
<text x="585" y="156" text-anchor="middle" font-size="11" font-weight="700" fill="#0f8f6a">TCP 9997</text>
<text x="915" y="156" text-anchor="middle" font-size="11" font-weight="700" fill="#0f8f6a">TCP 9997</text>
<text x="770" y="226" font-size="11" font-weight="700" fill="#0f8f6a" stroke="#f4f7fb" stroke-width="4" paint-order="stroke">TCP 9997 → Splunk receiver</text>

<!-- ============ SPLUNK MANAGER ============ -->
<g filter="url(#sh)"><rect x="560" y="250" width="380" height="335" rx="12" fill="url(#sp)" stroke="#0f8f6a" stroke-width="3"/></g>
<path d="M560 262a12 12 0 0 1 12-12h356a12 12 0 0 1 12 12v26H560z" fill="#14213d"/>
<text x="580" y="276" class="h" font-size="19">Splunk Manager</text>
<text x="920" y="276" text-anchor="end" font-size="12" fill="#b9c8e6">Indexer + Search Head</text>
<text x="580" y="310" class="t"><tspan font-weight="700">IP:</tspan> 192.168.64.1    <tspan font-weight="700">OS:</tspan> macOS</text>
<text x="580" y="330" class="s">Role: Indexer, search head, receiver, live console host</text>
<!-- display -->
<g transform="translate(595,342)">
<rect width="310" height="118" rx="7" fill="#0f1115"/><rect x="6" y="6" width="298" height="106" rx="3" fill="#161c28"/>
<rect x="6" y="6" width="298" height="14" fill="#0b0f1a"/><text x="12" y="16" font-size="9" font-weight="700" fill="#fff">splunk&gt;</text>
<rect x="6" y="20" width="52" height="92" fill="#10151f"/>
<g fill="#6b7a99"><rect x="12" y="28" width="30" height="3"/><rect x="12" y="38" width="24" height="3"/><rect x="12" y="48" width="34" height="3"/><rect x="12" y="58" width="26" height="3"/></g>
<rect x="64" y="26" width="234" height="12" rx="2" fill="#222b3d"/><text x="70" y="35" font-size="8" fill="#8896b3">index=soc_capstone</text>
<g stroke-width="1.8" fill="none"><rect x="64" y="46" width="72" height="58" rx="3" fill="#1b2332" stroke="none"/><rect x="144" y="46" width="72" height="58" rx="3" fill="#1b2332" stroke="none"/><rect x="224" y="46" width="74" height="58" rx="3" fill="#1b2332" stroke="none"/>
<path d="M70 96l16-14 14 6 18-20 12 8" stroke="#3ddc97"/><path d="M150 94l14-8 16 6 14-16 14 10" stroke="#ff6b6b"/><path d="M230 92l16-18 14 8 16-14 12 6" stroke="#3ddc97"/></g>
<path d="M-8 126H318L306 138H4z" fill="#b9bec8"/></g>
<text x="580" y="490" class="b">Key Services</text>
<rect class="chip" x="580" y="498" width="340" height="26" rx="6"/><text x="750" y="515" class="c">Splunk Enterprise · receiving TCP 9997 · Web :8000</text>
<rect class="chip" x="580" y="532" width="140" height="26" rx="6" stroke="#7a3fc4"/><text x="650" y="549" class="c">SignalScope :8765</text>
<rect class="chip" x="780" y="532" width="140" height="26" rx="6" stroke="#7a3fc4"/><text x="850" y="549" class="c">Mgmt API :8089</text>
<line x1="720" y1="545" x2="778" y2="545" stroke="#7a3fc4" stroke-width="2" stroke-dasharray="5 4" marker-end="url(#p)"/>
<text x="750" y="576" text-anchor="middle" class="s" font-size="12">Index: soc_capstone · SignalScope &amp; API bound to 127.0.0.1</text>

<!-- ============ BOTTOM PANELS ============ -->
<g filter="url(#sh)"><rect x="30" y="615" width="466" height="280" rx="12" fill="#fff" stroke="#8e6bd1" stroke-width="2"/></g>
<text x="52" y="647" font-size="18" font-weight="700" fill="#5a2fa0">Services &amp; Ports</text>
<g font-size="12" font-weight="700" fill="#fff" text-anchor="middle"><rect x="52" y="668" width="58" height="26" rx="6" fill="#0f8f6a"/><text x="81" y="685">9997</text><rect x="52" y="710" width="58" height="26" rx="6" fill="#1f4e9c"/><text x="81" y="727">8000</text><rect x="52" y="752" width="58" height="26" rx="6" fill="#7a3fc4"/><text x="81" y="769">8089</text><rect x="52" y="794" width="58" height="26" rx="6" fill="#7a3fc4"/><text x="81" y="811">8765</text><rect x="52" y="836" width="58" height="26" rx="6" fill="#33415c"/><text x="81" y="853">22</text></g>
<text x="124" y="685" class="t">Splunk receiving (Windows, Kali → .1)</text>
<text x="124" y="727" class="t">Splunk Web · 192.168.64.1:8000</text>
<text x="124" y="769" class="t">Splunk management API · 127.0.0.1</text>
<text x="124" y="811" class="t">SignalScope live console · 127.0.0.1</text>
<text x="124" y="853" class="t">SSH · Mac → Windows, Kali · Kali → Windows</text>
<text x="52" y="884" class="s">Analyst uses Splunk Web. SignalScope reads the management API.</text>

<g filter="url(#sh)"><rect x="517" y="615" width="466" height="280" rx="12" fill="#fff" stroke="#d6455d" stroke-width="2"/></g>
<text x="539" y="647" font-size="18" font-weight="700" fill="#b3263f">Security &amp; Monitoring</text>
<g class="t"><text x="539" y="682">• Sysmon + Windows Security, System, Application logs</text>
<text x="539" y="712">• Kali auth.log and syslog</text>
<text x="539" y="742">• Central storage in the soc_capstone index</text>
<text x="539" y="772">• Attack simulations, detections, live trace console</text>
<text x="539" y="802">• Telemetry forwarded only to the Splunk Manager</text>
<text x="539" y="832">• Live console bound to loopback (local analyst only)</text><text x="539" y="862">• Mac → Windows/Kali SSH seen in Sysmon and auth.log</text></g>

<g filter="url(#sh)"><rect x="1004" y="615" width="466" height="280" rx="12" fill="#fff" stroke="#14213d" stroke-width="2"/></g>
<text x="1026" y="647" font-size="18" font-weight="700" fill="#14213d">Legend</text>
<line x1="1026" y1="685" x2="1100" y2="685" stroke="#0f8f6a" stroke-width="4"/><text x="1116" y="690" class="t">Endpoint → Splunk telemetry (TCP 9997)</text>
<rect x="1026" y="713" width="74" height="24" rx="4" fill="#f7f9fc" stroke="#6b7a99" stroke-dasharray="6 4"/><text x="1116" y="730" class="t">Node (192.168.64.0/24 lab)</text>
<line x1="1026" y1="765" x2="1100" y2="765" stroke="#7a3fc4" stroke-width="3" stroke-dasharray="7 5"/><text x="1116" y="770" class="t">Loopback-only (127.0.0.1)</text>
<rect x="1026" y="800" width="40" height="22" rx="4" fill="#26334d"/><text x="1116" y="816" class="t">Virtual network switch</text>

<!-- footer -->
<rect x="15" y="915" width="1470" height="32" rx="8" fill="url(#hd)"/>
<text x="40" y="936" font-size="13" fill="#fff">SOC Playground  |  Security Operations Architecture</text>
<text x="1460" y="936" text-anchor="end" font-size="13" fill="#fff">UTM Virtual Network  192.168.64.0/24</text>
</g>
</svg>